<svg width="80" height="80" viewBox="0 0 80 80" fill="none" xmlns="http://www.w3.org/2000/svg">
<path d="M35 10H15C13.6739 10 12.4021 10.5268 11.4645 11.4645C10.5268 12.4021 10 13.6739 10 15V51.6667C10 52.9927 10.5268 54.2645 11.4645 55.2022C12.4021 56.1399 13.6739 56.6667 15 56.6667H65C66.3261 56.6667 67.5978 56.1399 68.5355 55.2022C69.4732 54.2645 70 52.9927 70 51.6667V35M40 56.6667V70" stroke="black" stroke-width="4" stroke-linecap="round" stroke-linejoin="round"/>
<path d="M53.3333 10L46.6667 16.6667L53.3333 23.3333M63.3333 10L70 16.6667L63.3333 23.3333M23.3333 70H56.6667" stroke="black" stroke-width="4" stroke-linecap="round" stroke-linejoin="round"/>
</svg>
